# xmcd CD Database Entry
#
# Track frame offsets:
# 150
# 18050
# 34444
# 48127
# 64946
# 82346
# 102110
# 120240
# 131345
# 175471
# 201530
# 218007
# 264625
# 283445
# 296669
# 309098
# 322904
#
# Disc length: 4636 seconds
#
# Revision: 2
# Processed by: cddbd v1.4PL0 Copyright (c) Steve Scherf et al.
# Submitted via: tcd 2.0b
#
DISCID=fb121a11
DTITLE=Various Artist - Various
DYEAR=1900
DGENRE=
TTITLE0=Aretha Franklin - Call Me
TTITLE1=Aretha Franklin - Say a Little Prayer
TTITLE2=Aretha Franklin - Don't Play that Song
TTITLE3=Aretha Franklin - Oh Me Oh My
TTITLE4=Wyclef - Two Wrongs
TTITLE5=Wyclef - 911
TTITLE6=Rose Royce - Love don't live here anymore
TTITLE7=Dusty Springfield - Son of a Preacher Man
TTITLE8=Tina Gardner - Heart Beat
TTITLE9=Earth, Wind and Fire - That's the Way of the World
TTITLE10=Nina Simone - My Baby Just Cares For Me
TTITLE11=Nina Simone - Sinnerman
TTITLE12=Tyrone Davis - In the mood
TTITLE13=Aretha Franklin - Trouble In Mind
TTITLE14=Nine Simone - Trouble In Mind
TTITLE15=Muddy Waters - Trouble In Mind
TTITLE16=Bobby Womack - If you think you are lonly Tonight
EXTD=
EXTT0=
EXTT1=
EXTT2=
EXTT3=
EXTT4=
EXTT5=
EXTT6=
EXTT7=
EXTT8=
EXTT9=
EXTT10=
EXTT11=
EXTT12=
EXTT13=
EXTT14=
EXTT15=
EXTT16=
PLAYORDER=
